PathFileType	4	(X/Y/Z)	C:/Users/opensim2020/Desktop/walking_exp_matlab/subject06_walking19_straight_03.trc																																																																																																																																																	
DataRate	CameraRate	NumFrames	NumMarkers	Units	OrigDataRate	OrigDataStartFrame	OrigNumFrames																																																																																																																																													
100	100	7	49	mm	100	3356	358																																																																																																																																													
Frame#	Time	LFHD			RFHD			LBHD			RBHD			C7			T10			CLAV			STRN			RBAK			LSHO			LUPA			LELB			LFRM			LWRA			LWRB			LFIN			RSHO			RUPA			RELB			RFRM			RWRA			RWRB			RFIN			LASI			RASI			LPSI			RPSI			LTHI			LKNE			LTIB			LANK			LHEE			LTOE			RTHI			RKNE			RTIB			RANK			RHEE			RTOE			*39			*40			*41			*42			*43			*44			*45			*46			*47			*48		
		X1	Y1	Z1	X2	Y2	Z2	X3	Y3	Z3	X4	Y4	Z4	X5	Y5	Z5	X6	Y6	Z6	X7	Y7	Z7	X8	Y8	Z8	X9	Y9	Z9	X10	Y10	Z10	X11	Y11	Z11	X12	Y12	Z12	X13	Y13	Z13	X14	Y14	Z14	X15	Y15	Z15	X16	Y16	Z16	X17	Y17	Z17	X18	Y18	Z18	X19	Y19	Z19	X20	Y20	Z20	X21	Y21	Z21	X22	Y22	Z22	X23	Y23	Z23	X24	Y24	Z24	X25	Y25	Z25	X26	Y26	Z26	X27	Y27	Z27	X28	Y28	Z28	X29	Y29	Z29	X30	Y30	Z30	X31	Y31	Z31	X32	Y32	Z32	X33	Y33	Z33	X34	Y34	Z34	X35	Y35	Z35	X36	Y36	Z36	X37	Y37	Z37	X38	Y38	Z38	X39	Y39	Z39	X40	Y40	Z40	X41	Y41	Z41	X42	Y42	Z42	X43	Y43	Z43	X44	Y44	Z44	X45	Y45	Z45	X46	Y46	Z46	X47	Y47	Z47	X48	Y48	Z48	X49	Y49	Z49
																																																																																																																																																				
90	0.89	-538.41992	1666.49939	1399.13782	-539.08771	1655.21008	1530.32483	-670.0047	1608.73486	1397.31494	-669.39355	1602.29419	1526.78101	-670.61731	1455.42554	1443.89709	-709.08234	1127.26599	1446.86755	-562.29767	1375.54639	1455.82922	-525.83435	1198.69128	1447.92188	-752.56232	1284.08276	1511.98743	-592.5885	1410.37732	1290.23267	-564.73157	1206.72266	1226.20337	-550.26538	1093.29199	1221.19629	-472.49658	963.36938	1222.83069	-378.52753	891.07788	1287.96704	-424.48785	856.24219	1246.93677	-353.4693	802.41095	1262.81116	-623.08643	1405.71143	1611.32434	-684.40704	1210.08398	1690.22607	-684.38593	1086.69043	1698.27087	-673.41895	966.3429	1711.26941	-613.13898	828.01263	1678.12073	-670.78766	828.21259	1713.26025	-635.29944	751.48907	1714.98669	-536.99139	957.58319	1342.34448	-531.57813	976.62811	1563.12305	-692.24951	990.84772	1372.73486	-683.50507	1002.0072	1541.19531	-627.78027	641.08374	1295.86902	-645.09589	477.78659	1316.61169	-826.36212	297.28427	1310.97327	-941.98639	166.70526	1341.40051	-985.2854	180.84555	1383.69678	-856.00677	50.28975	1357.91443	-541.28204	647.20239	1617.46533	-518.61493	525.61572	1586.75488	-537.00641	259.68164	1587.0863	-542.40485	73.73355	1542.32507	-586.10046	48.63301	1503.84705	-388.42523	40.80928	1518.11633	-640.09863	1701.95398	1457.41162	NaN	NaN	NaN	NaN	NaN	NaN	NaN	NaN	NaN	NaN	NaN	NaN	NaN	NaN	NaN	NaN	NaN	NaN	NaN	NaN	NaN	NaN	NaN	NaN	NaN	NaN	NaN
91	0.9	-532.36169	1667.13635	1400.12659	-532.68585	1655.92896	1531.33228	-663.88647	1609.07776	1398.73694	-662.84967	1602.78577	1528.22192	-663.47278	1455.94238	1445.6405	-702.59845	1127.91638	1448.67322	-555.68079	1376.14453	1457.05688	-519.3363	1199.21533	1449.04028	-745.64819	1284.73657	1514.40796	-586.74805	1410.70276	1291.61157	-559.3634	1206.97729	1227.48865	-544.81317	1093.59448	1222.35547	-467.93445	962.9035	1223.14124	-375.19495	889.05005	1287.92651	-421.379	855.27216	1246.10205	-350.65332	800.6087	1261.62268	-615.40936	1406.20691	1612.83716	-675.70734	1210.31348	1692.37012	-675.92944	1086.96021	1699.93066	-664.02106	966.66254	1712.66638	-603.27527	828.80365	1678.51685	-660.56445	828.58319	1714.21228	-624.79419	752.0824	1715.27441	-530.92065	958.30627	1343.15491	-525.10333	976.58148	1564.29102	-686.21625	991.31116	1373.83545	-676.88367	1002.42126	1542.28857	-618.41748	641.10205	1296.75867	-633.17651	477.63721	1317.40649	-816.25916	299.95749	1312.0144	-934.5578	171.9572	1342.07361	-977.46082	187.16623	1384.3623	-851.55188	53.11369	1358.53638	-536.17548	647.38336	1618.0238	-514.30786	525.41669	1587.26331	-535.52588	259.6113	1587.46411	-542.23724	73.70911	1542.35693	-586.02527	48.73244	1503.85095	-388.18616	40.53366	1518.17908	-633.97424	1702.42468	1458.64441	NaN	NaN	NaN	NaN	NaN	NaN	NaN	NaN	NaN	NaN	NaN	NaN	NaN	NaN	NaN	NaN	NaN	NaN	NaN	NaN	NaN	NaN	NaN	NaN	NaN	NaN	NaN
92	0.91	-526.2724	1667.71936	1401.17944	-526.29932	1656.58606	1532.37317	-657.68811	1609.42493	1400.10999	-656.37262	1603.1637	1529.60034	-657.25269	1456.59814	1447.24878	-696.34711	1128.49817	1450.37634	-549.34705	1376.54602	1458.11304	-513.01691	1199.64978	1450.00049	-738.90857	1285.3446	1516.67224	-581.03369	1411.00049	1292.85791	-554.26105	1207.12512	1228.68884	-539.67035	1093.80103	1223.47058	-464.36646	962.5321	1223.16418	-372.05957	886.94824	1287.58606	-418.27158	854.17676	1245.15063	-348.20657	798.70013	1260.20886	-607.85712	1406.6311	1614.30994	-666.96155	1210.56067	1694.51123	-666.61798	1087.1156	1701.96484	-654.46436	966.8811	1714.0874	-593.36865	829.47559	1678.7323	-650.24658	828.85468	1715.23682	-614.1676	752.54791	1715.70142	-525.04315	958.87115	1343.81653	-518.49884	976.7901	1565.17346	-680.24835	991.71692	1374.84387	-670.36108	1002.8396	1543.24658	-609.16223	641.0921	1297.70874	-621.3783	477.51538	1318.34009	-806.07184	302.48615	1312.98828	-926.67505	176.89397	1342.90295	-969.22028	192.90781	1385.15039	-845.94403	56.22116	1358.74878	-531.40674	647.33466	1618.51489	-510.42514	524.88855	1587.4906	-534.17041	259.47162	1587.82751	-542.11993	73.67415	1542.36145	-586.07501	48.83773	1503.81445	-388.11438	40.31551	1518.17871	-627.84387	1702.83179	1459.91089	NaN	NaN	NaN	NaN	NaN	NaN	NaN	NaN	NaN	NaN	NaN	NaN	NaN	NaN	NaN	NaN	NaN	NaN	NaN	NaN	NaN	NaN	NaN	NaN	NaN	NaN	NaN
93	0.92	-520.22223	1668.23657	1402.20007	-519.87897	1657.08411	1533.40881	-651.59253	1609.73804	1401.44946	-649.93982	1603.52087	1530.96777	-650.95325	1457.01343	1448.98608	-690.02985	1128.92676	1451.93738	-543.05267	1376.95508	1459.21814	-506.87018	1200.05078	1450.88306	-732.19714	1285.95581	1518.82373	-575.50891	1411.2771	1294.0824	-549.23486	1207.26074	1229.92627	-534.82831	1093.99292	1224.56421	-460.73309	961.99512	1223.18542	-369.07941	884.87714	1287.00439	-415.97098	853.146	1243.96973	-346.15012	796.79871	1258.58826	-600.42389	1406.97095	1615.69934	-658.18048	1210.69214	1696.53772	-657.64606	1087.2511	1703.74951	-644.85327	967.08478	1715.53931	-583.50519	830.08984	1679.0592	-639.82141	829.11249	1716.32483	-603.37714	753.07959	1716.20264	-519.20013	959.60571	1344.56201	-512.21307	976.77405	1565.92932	-674.38336	992.15332	1375.85461	-664.06342	1003.25732	1544.23645	-600.04791	641.04547	1298.64099	-609.61505	477.44482	1319.41907	-795.72809	304.82596	1314.08447	-918.33221	181.30014	1343.93652	-960.38751	197.6795	1386.50806	-838.69116	59.52454	1358.36304	-527.11151	646.89807	1618.92798	-506.58444	524.85907	1588.46948	-532.70496	259.34158	1588.33838	-541.96008	73.67105	1542.44629	-586.04541	48.88714	1503.80896	-387.89954	40.01931	1518.26453	-621.73315	1703.23438	1461.21667	NaN	NaN	NaN	NaN	NaN	NaN	NaN	NaN	NaN	NaN	NaN	NaN	NaN	NaN	NaN	NaN	NaN	NaN	NaN	NaN	NaN	NaN	NaN	NaN	NaN	NaN	NaN
94	0.93	-514.25873	1668.67639	1403.20667	-513.48273	1657.52136	1534.41846	-645.5282	1610.09583	1402.82544	-643.48309	1603.83899	1532.31665	-645.04803	1457.61682	1450.625	-683.92102	1129.42773	1453.4729	-536.74762	1377.39063	1460.2749	-500.88809	1200.38037	1451.66785	-725.65198	1286.48132	1520.83997	-570.01343	1411.60791	1295.28271	-544.39905	1207.46729	1231.0813	-530.27271	1094.30334	1225.55151	-457.38342	961.47186	1223.13977	-366.35873	882.78186	1286.09192	-413.53339	851.9519	1243.04163	-344.38181	794.91241	1256.76111	-593.03314	1407.30847	1617.0509	-649.41541	1210.80957	1698.48169	-648.63147	1087.38818	1705.42395	-635.33429	967.31799	1716.85522	-573.54596	830.742	1679.39392	-629.28625	829.38708	1717.41956	-592.49445	753.59814	1716.56909	-513.46057	960.11017	1345.08655	-505.81329	976.98846	1566.66296	-668.59344	992.55084	1376.81995	-657.82147	1003.58832	1545.1217	-590.97955	641.13525	1299.58459	-598.1239	477.55634	1320.40991	-785.3443	306.83435	1315.41394	-909.21545	184.87566	1345.18372	-950.95197	201.01532	1388.38757	-830.29163	62.75235	1357.0592	-522.91443	646.94342	1619.71411	-502.9697	524.5816	1589.13672	-531.02203	259.25171	1588.91821	-541.7854	73.62359	1542.60181	-586.31525	49.18695	1503.99426	-387.66241	39.76793	1518.3241	-615.56671	1703.59705	1462.50171	NaN	NaN	NaN	NaN	NaN	NaN	NaN	NaN	NaN	NaN	NaN	NaN	NaN	NaN	NaN	NaN	NaN	NaN	NaN	NaN	NaN	NaN	NaN	NaN	NaN	NaN	NaN
95	0.94	-508.11755	1669.14514	1404.21875	-507.08627	1657.91565	1535.41565	-639.46405	1610.47961	1404.19141	-637.08301	1604.19812	1533.65454	-638.55804	1457.8905	1452.13611	-677.86041	1129.80029	1454.94067	-530.55249	1377.80127	1461.29614	-494.90054	1200.73218	1452.51978	-719.29504	1286.95081	1522.86548	-564.65924	1411.91614	1296.35803	-539.8266	1207.68713	1232.11206	-525.86951	1094.54285	1226.4978	-454.30188	960.96405	1223.03198	-364.00189	880.73682	1284.96936	-411.72067	850.88623	1241.91626	-343.0744	793.01251	1254.7644	-585.90881	1407.58667	1618.32837	-640.81927	1210.90247	1700.35498	-640.04779	1087.52063	1706.99866	-625.51514	967.49323	1718.35645	-563.55316	831.41125	1679.7677	-618.7063	829.75433	1718.68445	-581.1944	753.94775	1716.75195	-507.81647	960.81537	1346.16064	-499.70404	977.05725	1567.37866	-662.8949	992.98071	1377.74072	-651.7934	1003.98212	1546.07336	-582.04199	641.32062	1300.48193	-586.96521	477.92328	1321.42285	-774.64606	308.61765	1316.75037	-899.47546	187.65205	1346.50342	-940.90881	203.08566	1390.45837	-819.91406	66.05917	1355.51868	-519.02411	646.58594	1620.28491	-499.59659	524.17145	1589.6344	-529.39581	259.13474	1589.31006	-541.58252	73.57245	1542.74756	-586.1189	49.10664	1504.01599	-387.55933	39.62656	1518.39514	-609.38263	1703.99915	1463.77271	NaN	NaN	NaN	NaN	NaN	NaN	NaN	NaN	NaN	NaN	NaN	NaN	NaN	NaN	NaN	NaN	NaN	NaN	NaN	NaN	NaN	NaN	NaN	NaN	NaN	NaN	NaN
96	0.95	-502.07034	1669.55457	1405.15942	-500.68961	1658.32104	1536.3446	-633.46741	1610.94202	1405.55066	-630.70178	1604.64209	1534.97644	-632.55884	1458.35376	1453.64868	-672.0293	1130.32202	1456.37622	-524.58105	1378.18445	1462.1571	-489.01672	1201.09644	1453.2738	-713.07678	1287.39526	1524.87988	-559.62085	1412.34619	1297.39941	-535.45483	1207.92432	1233.19727	-521.745	1094.81519	1227.35632	-451.28775	960.40454	1222.77051	-361.62228	878.85779	1283.63892	-410.38074	849.96686	1240.4447	-342.06952	791.07092	1252.58545	-578.89606	1407.90771	1619.50684	-632.47083	1211.08167	1702.06091	-630.82983	1087.65845	1708.8324	-615.94891	967.79156	1719.69421	-553.64923	832.15137	1680.17725	-608.17303	830.12994	1719.88281	-570.0993	754.57245	1717.45642	-501.42877	961.50507	1346.90186	-493.59647	977.25183	1567.92041	-657.21332	993.41846	1378.5918	-646.23932	1004.44061	1547.03149	-573.12897	641.65784	1301.61621	-575.99988	478.41864	1322.49084	-764.18115	310.16953	1318.10974	-889.02643	189.48589	1347.74561	-930.20703	204.06824	1392.51794	-808.41174	69.01617	1353.48596	-514.87451	646.7533	1621.14185	-496.07227	524.10901	1590.69458	-527.84161	259.05484	1589.60449	-541.44592	73.53081	1542.84131	-586.2019	49.24459	1504.08582	-387.54446	39.52564	1518.46033	-603.19226	1704.44324	1465.05237	NaN	NaN	NaN	NaN	NaN	NaN	NaN	NaN	NaN	NaN	NaN	NaN	NaN	NaN	NaN	NaN	NaN	NaN	NaN	NaN	NaN	NaN	NaN	NaN	NaN	NaN	NaN
